# xmcd CD database file
#
# Track frame offsets:
#	150
#	18250
#	40357
#	57450
#	87848
#	114196
#	153641
#	178395
#	201667
#	222183
#	244847
#
# Disc length: 3554 seconds
#
# Revision: 0
# Processed by: cddbd v1.4PL0 Copyright (c) Steve Scherf et al.
# Submitted via: CDex 1.50
#
DISCID=9e0de00b
DTITLE=Sweet Daddy Cool Breeze - Don't Pass Me By
DYEAR=1994
DGENRE=Blues
TTITLE0=Pass Me By
TTITLE1=Foolish Girl
TTITLE2=Hook
TTITLE3=Deep In The Cosmos
TTITLE4=Be With You
TTITLE5=Killin' Floor
TTITLE6=Lonely Tears
TTITLE7=Built For The Comfort
TTITLE8=Help Me
TTITLE9=Cross Cut Saw
TTITLE10=Hard Times
EXTD=YEAR: 1994
EXTT0=
EXTT1=
EXTT2=
EXTT3=
EXTT4=
EXTT5=
EXTT6=
EXTT7=
EXTT8=
EXTT9=
EXTT10=
PLAYORDER=
